<svg enable-background="new 0 0 100 60" height="60" viewBox="0 0 100 60" width="100" xmlns="http://www.w3.org/2000/svg" xmlns:xlink="http://www.w3.org/1999/xlink"><clipPath id="a"><path d="m-172-38.224c0-1.823-1.557-3.302-3.475-3.302h-93.052c-1.918 0-3.474 1.479-3.474 3.302v53.396c0 1.823 1.557 3.303 3.475 3.303h93.051c1.918 0 3.475-1.479 3.475-3.303"/></clipPath><radialGradient id="b" cx="-1732.9019" cy="801.5365" gradientTransform="matrix(-215.4565 125.9087 265.1157 409.2032 -586041.5 -109842.1172)" gradientUnits="userSpaceOnUse" r=".4334"><stop offset=".447" stop-color="#ff5592"/><stop offset=".516" stop-color="#fa5593"/><stop offset=".587" stop-color="#ee5698"/><stop offset=".66" stop-color="#d959a1"/><stop offset=".733" stop-color="#bc5cad"/><stop offset=".807" stop-color="#9760bc"/><stop offset=".882" stop-color="#6965cf"/><stop offset=".956" stop-color="#336be5"/><stop offset="1" stop-color="#106ff4"/></radialGradient><linearGradient id="c" gradientTransform="matrix(48.908 0 0 -36.9641 90763.3516 25773.0078)" gradientUnits="userSpaceOnUse" x1="-1861.9449" x2="-1861.8857" y1="699.8608" y2="700.1544"><stop offset="0" stop-color="#cccbcb"/><stop offset=".344" stop-color="#fff"/><stop offset=".65" stop-color="#c3c2c2"/><stop offset=".833" stop-color="#fff"/><stop offset="1" stop-color="#e8e8e8"/></linearGradient><linearGradient id="d" gradientTransform="matrix(48.903 0 0 -36.9641 90753.9844 25773.9336)" gradientUnits="userSpaceOnUse" x1="-1861.9449" x2="-1861.8856" y1="699.8849" y2="700.1786"><stop offset="0" stop-color="#cbcaca"/><stop offset=".344" stop-color="#fff"/><stop offset=".65" stop-color="#c1c1c0"/><stop offset=".833" stop-color="#fff"/><stop offset="1" stop-color="#e8e7e7"/></linearGradient><g transform="translate(272 41.526)"><path clip-path="url(#a)" d="m-172.1-11.883v-26.4c0-1.824-1.555-3.303-3.473-3.303h-93.054c-1.919 0-3.475 1.479-3.475 3.303v53.393c0 1.823 1.556 3.304 3.475 3.304h93.054c1.918 0 3.473-1.479 3.473-3.304z" fill="url(#b)"/><g fill="#fff" transform="translate(119.18 89.229)"><path d="m-361.875-106.734c.327.439.417 1.012.241 1.531-.055.167-.137.322-.241.464-.142.19-.102.459.09.601.189.141.458.101.6-.091.158-.212.281-.448.366-.698.173-.525.173-1.092 0-1.617-.084-.252-.208-.487-.366-.698-.145-.188-.414-.224-.602-.078-.183.139-.222.399-.088.586"/><path d="m-360.405-107.534c.674 1.104.674 2.492 0 3.596-.125.2-.064.463.136.588h.002c.202.123.467.062.592-.14.848-1.379.848-3.118 0-4.497-.125-.201-.39-.263-.591-.138-.202.125-.264.39-.139.591"/><path d="m-358.849-108.347c.943 1.612.943 3.608 0 5.223-.12.205-.05.469.155.588.205.12.469.05.589-.155 1.095-1.883 1.095-4.208 0-6.091-.124-.203-.389-.268-.592-.145-.198.121-.264.377-.152.58"/><path d="m-357.293-109.167c1.207 2.127 1.207 4.732 0 6.859-.127.2-.068.465.132.592s.465.068.592-.131c.007-.012.014-.023.02-.035 1.356-2.392 1.356-5.318 0-7.709-.128-.198-.394-.256-.592-.129-.185.117-.251.357-.152.553"/></g><g transform="translate(44.358 85.619)"><path d="m-294.767-97.149h-8.936c-1.095.002-1.984-.883-1.988-1.979v-5.988c.004-1.095.894-1.979 1.988-1.979h8.936c1.095-.002 1.983.883 1.987 1.979v5.988c-.004 1.096-.892 1.981-1.987 1.979z" fill="#989797"/><path d="m-297.044-102.11c0 1.03.24 1.274.326 1.33l.056.014h3.378c.062 0 .111-.049.111-.11v-2.487c0-.062-.05-.11-.111-.11h-3.342c-.032-.003-.062.011-.083.036-.106.114-.335.462-.335 1.327zm-4.382 0c0-.865-.229-1.213-.336-1.328-.021-.023-.052-.037-.083-.036h-3.343c-.062 0-.11.049-.11.11v2.486c0 .061.05.111.11.109h3.38c.021.002.042-.004.06-.017.089-.057.322-.311.322-1.324zm-.324 1.554c-.017-.011-.038-.017-.058-.017h-3.381c-.062 0-.11.049-.11.11v1.335c.002.879.716 1.591 1.596 1.588h1.637c.039.001.076-.02.097-.053.325-.503.513-1.082.546-1.68-.003-.98-.238-1.227-.327-1.283zm-3.437-3.113h3.38c.021 0 .042-.005.059-.017.09-.059.323-.305.323-1.286.003-.595-.161-1.177-.475-1.681-.021-.033-.057-.051-.095-.051h-1.707c-.879-.001-1.593.709-1.595 1.588v1.336c0 .062.049.111.11.111zm11.903 3.096h-3.386c-.024 0-.048.008-.067.021-.087.065-.307.326-.307 1.28.011.594.182 1.175.496 1.68.021.033.057.052.095.052h1.687c.879.002 1.594-.709 1.596-1.588v-1.335c0-.061-.05-.111-.111-.109-.002-.001-.003-.001-.003-.001zm-1.485-6.131h-6.744c-.062-.001-.111.049-.113.109 0 .018.004.035.012.051.254.484.387 1.023.382 1.572 0 .824-.165 1.193-.311 1.361-.032.035-.034.088-.006.127.141.198.316.602.316 1.373 0 .813-.15 1.196-.292 1.377-.029.037-.029.09 0 .127.144.179.292.551.292 1.336-.021.552-.177 1.09-.451 1.568-.029.053-.011.121.043.15.017.009.034.014.054.013h4.652c.061 0 .109-.049.109-.11 0-.019-.004-.035-.013-.052-.256-.483-.395-1.021-.402-1.569 0-.789.15-1.161.292-1.338.03-.037.03-.092 0-.129-.143-.181-.292-.563-.292-1.375 0-1.26.47-1.535.49-1.545 0 0 .007-.013.065-.013h3.4c.062 0 .111-.049.111-.11v-1.334c.001-.88-.713-1.591-1.594-1.589zm-2.938 1.107h-3.058c-.055 0-.099-.043-.1-.099 0-.054.044-.098.099-.098h.001 3.058c.054 0 .098.044.098.098 0 .055-.044.098-.098.099zm0 7.186h-3.058c-.055 0-.1-.042-.1-.096v-.001c0-.054.044-.099.099-.097h.001 3.058c.054 0 .098.043.098.097s-.044.097-.098.097z" fill="url(#c)"/></g><path d="m-252.277 12.234.167-2.557h.561l.669 1.699.667-1.701h.558l.167 2.558h-.458l-.114-1.882-.625 1.609h-.397l-.63-1.613-.118 1.887zm-11.869-2.508h.526l.912 2.557h-.496l-.196-.591h-.981l-.192.591h-.486zm-.115 1.591h.739l-.372-1.126zm1.861.968v-2.559h.765c.262-.016.521.061.735.213.177.137.276.35.27.57.003.162-.047.32-.145.449-.104.133-.242.23-.401.281l.719 1.043h-.545l-.633-.968h-.295v.968zm.468-2.17v.825h.295c.139.009.276-.03.389-.11.093-.075.145-.19.139-.311.007-.117-.044-.23-.136-.303-.114-.076-.25-.112-.388-.104zm2.833 2.216c-.232.008-.46-.051-.663-.164-.185-.107-.334-.269-.428-.461-.103-.211-.153-.445-.148-.682-.006-.248.049-.494.161-.716.101-.194.254-.356.443-.469.194-.112.417-.171.642-.166.113 0 .227.015.335.043.103.022.199.062.29.112v.438c-.085-.057-.179-.102-.275-.131-.098-.029-.198-.047-.3-.047-.222-.012-.437.08-.585.244-.15.188-.227.426-.214.664-.012.242.066.479.221.666.146.166.36.256.582.248.223 0 .438-.07.617-.201v.438c-.205.129-.439.19-.678.184zm2.069-.416c.195.008.383-.086.496-.246.13-.195.193-.428.182-.662.012-.235-.053-.471-.187-.664-.112-.16-.299-.254-.495-.248-.195-.006-.38.084-.493.244-.131.195-.194.428-.183.664-.012.234.053.469.185.664.114.161.299.254.495.248zm-.003.416c-.22.006-.436-.053-.621-.17-.179-.113-.319-.277-.407-.47-.098-.217-.147-.45-.143-.688-.005-.242.048-.482.153-.701.301-.572 1.009-.793 1.582-.492.022.013.043.022.064.035.177.114.318.276.406.471.099.216.146.449.143.687.005.242-.047.482-.153.701-.188.395-.59.639-1.024.627zm3.525 0c-.262.006-.521-.051-.757-.162v-.434c.211.116.448.182.689.188.127.008.254-.023.363-.091.084-.06.133-.155.128-.258.001-.059-.015-.115-.047-.164-.044-.056-.102-.101-.167-.131-.111-.055-.228-.102-.347-.139-.401-.135-.603-.371-.603-.713-.003-.145.038-.283.117-.402.082-.117.194-.208.326-.264.152-.062.316-.096.48-.092.196-.004.393.039.571.121v.414c-.171-.088-.36-.133-.553-.133-.119-.008-.238.022-.339.086-.079.053-.125.143-.122.235-.001.086.039.167.108.218.125.082.263.146.406.186.19.053.363.154.502.295.109.125.167.289.161.455.003.146-.037.293-.116.418-.079.119-.191.213-.323.27-.148.07-.312.099-.477.097zm4.237-.097.167-2.557h.561l.669 1.699.667-1.701h.558l.167 2.558h-.458l-.114-1.882-.625 1.609h-.396l-.631-1.613-.117 1.887zm3.692.097c-.262.006-.521-.051-.757-.162v-.434c.211.116.448.182.689.188.127.008.254-.023.364-.091.084-.06.133-.155.128-.258.001-.059-.016-.115-.048-.164-.043-.056-.102-.101-.166-.131-.112-.055-.229-.102-.348-.139-.4-.135-.602-.371-.602-.713-.003-.145.038-.283.117-.402.082-.117.193-.208.325-.264.152-.062.316-.096.48-.092.197-.004.393.039.572.121v.414c-.171-.088-.361-.133-.554-.133-.119-.008-.237.022-.339.086-.079.053-.125.143-.122.235-.001.086.039.167.108.218.125.082.263.146.407.186.189.053.362.154.502.295.108.125.167.289.161.455.003.146-.037.293-.116.418-.08.119-.192.213-.324.27-.148.07-.312.099-.477.097zm3.059-.097.167-2.557h.561l.669 1.699.667-1.701h.558l.167 2.558h-.458l-.114-1.882-.625 1.609h-.396l-.631-1.613-.117 1.887zm-1.23.097c-.262.006-.521-.051-.757-.162v-.434c.211.116.448.182.689.188.127.008.254-.023.363-.091.084-.06.134-.155.129-.258.001-.059-.016-.115-.048-.164-.044-.056-.102-.101-.167-.131-.111-.055-.228-.102-.347-.139-.401-.135-.602-.371-.602-.713-.003-.145.038-.283.116-.402.082-.117.194-.208.326-.264.152-.062.316-.096.48-.092.197-.004.393.039.572.121v.414c-.172-.088-.361-.133-.554-.133-.119-.008-.237.022-.339.086-.079.053-.125.143-.122.235-.001.086.039.167.108.218.125.082.263.146.407.186.189.053.362.154.502.295.108.125.167.289.16.455.003.146-.036.293-.115.418-.08.119-.192.213-.324.27-.148.07-.312.099-.477.097zm4.236-.097.167-2.557h.561l.67 1.699.667-1.701h.557l.167 2.558h-.458l-.114-1.882-.625 1.609h-.396l-.63-1.613-.118 1.887zm3.693.097c-.263.006-.521-.051-.758-.162v-.434c.211.116.448.182.689.188.127.008.254-.023.364-.091.084-.06.133-.155.128-.258.001-.059-.016-.115-.047-.164-.044-.056-.103-.101-.167-.131-.112-.055-.229-.102-.348-.139-.4-.135-.602-.371-.602-.713-.003-.145.038-.283.117-.402.082-.117.193-.208.325-.264.152-.062.316-.096.48-.092.197-.004.393.039.572.121v.414c-.171-.088-.361-.133-.553-.133-.119-.008-.238.022-.34.086-.078.053-.125.143-.122.235-.001.086.039.167.108.218.125.082.263.146.407.186.189.053.362.154.502.295.108.125.167.289.161.455.003.146-.037.293-.116.418-.08.119-.192.213-.324.27-.147.07-.311.099-.476.097z" fill="#fffdfd"/><path d="m-264.555-35.921c-.171.008-.338-.058-.457-.181-.117-.136-.178-.31-.168-.488-.003-.125.025-.247.082-.356.051-.1.13-.181.228-.234.1-.055.212-.083.326-.081.105-.003.211.021.306.069v.252c-.082-.049-.176-.073-.271-.07-.101-.005-.198.037-.265.111-.069.088-.104.197-.098.308-.006.11.029.222.1.308.066.076.165.118.266.113.102.002.2-.025.286-.079v.255c-.104.05-.219.076-.335.073zm.573-1.309h.27l.021.185c.027-.062.07-.115.126-.154.052-.035.115-.056.179-.055.033-.001.065.004.096.016v.279c-.035-.012-.071-.019-.107-.018-.078-.002-.152.031-.201.092-.053.072-.08.161-.075.25v.682h-.307v-1.277zm1.427 1.309c-.175.01-.347-.056-.471-.18-.12-.137-.182-.314-.17-.496-.003-.122.021-.243.073-.354.047-.097.118-.178.208-.232.093-.055.196-.083.304-.082.148-.007.293.055.392.167.104.132.155.297.146.464v.139h-.828c.009.094.054.182.124.246.074.059.168.088.263.083.126-.001.251-.032.362-.093v.244c-.123.067-.262.098-.403.094zm-.065-1.107c-.073-.004-.145.026-.192.082-.054.069-.085.152-.09.24h.545c.002-.085-.024-.168-.074-.238-.047-.056-.116-.088-.189-.084zm.094-.375h-.269l.264-.383h.333zm1.147 1.482c-.147.005-.289-.062-.378-.181-.101-.142-.15-.312-.143-.483-.003-.124.02-.248.067-.361.039-.095.104-.176.188-.234.081-.055.177-.083.273-.081.069-.001.138.015.198.044.062.03.112.074.152.128v-.696h.306v1.834h-.267l-.02-.174c-.037.065-.091.118-.156.153-.066.036-.143.053-.22.051zm.081-.251c.084.002.165-.04.21-.11.058-.092.083-.198.078-.306.006-.108-.021-.215-.076-.309-.045-.073-.126-.117-.212-.114-.086-.003-.168.039-.215.111-.057.092-.084.199-.078.308-.006.108.021.215.077.308.048.072.129.115.216.112zm.86-1.058h.305v1.278h-.306zm.152-.192c-.049.001-.097-.017-.132-.052-.07-.071-.07-.186 0-.256.074-.069.189-.069.264 0 .07.07.07.185 0 .256-.034.034-.082.053-.132.052zm.927 1.495c-.115.009-.229-.031-.312-.108-.077-.092-.114-.209-.105-.328v-.629h-.202v-.238h.202v-.338h.305v.338h.285v.238h-.285v.603c-.005.058.011.116.044.164.035.038.086.057.138.053.048 0 .096-.01.139-.028v.238c-.07.022-.14.035-.209.035zm.916.006c-.113.003-.226-.025-.322-.085-.091-.057-.164-.139-.209-.235-.05-.109-.075-.229-.072-.349-.003-.124.024-.246.078-.356.047-.098.122-.18.214-.234.197-.109.438-.107.633.004.092.057.164.139.209.236.051.107.075.227.073.347.002.124-.023.246-.078.356-.047.098-.122.179-.214.234-.096.055-.204.084-.312.082zm0-.251c.086.003.168-.039.217-.11.058-.093.085-.201.079-.309.006-.107-.021-.216-.079-.309-.084-.119-.25-.148-.37-.064-.023.018-.045.039-.062.062-.059.093-.086.199-.079.309-.007.107.021.215.077.309.047.072.129.115.217.112z" fill="#fffdfd"/><g transform="translate(44.358 85.593)"><path d="m-294.767-97.129h-8.936c-1.095.002-1.984-.884-1.988-1.979v-5.988c.004-1.095.895-1.98 1.988-1.979h8.936c1.095-.002 1.983.883 1.987 1.979v5.988c-.004 1.095-.892 1.981-1.987 1.979z" fill="#989797"/><path d="m-297.044-102.09c0 1.03.24 1.274.326 1.329l.056.015h3.378c.062 0 .111-.049.111-.11v-2.487c0-.061-.05-.109-.111-.109h-3.342c-.032-.002-.062.011-.083.035-.106.112-.335.46-.335 1.327zm-4.382 0c0-.865-.229-1.213-.336-1.328-.021-.023-.052-.037-.083-.037h-3.343c-.062 0-.11.05-.11.11v2.486c0 .062.05.11.11.11h3.38c.021 0 .042-.006.06-.018.089-.057.322-.311.322-1.323zm-.324 1.553c-.017-.01-.038-.016-.058-.016h-3.381c-.062 0-.11.049-.11.11v1.334c.001.879.716 1.59 1.595 1.589h.001 1.637c.039 0 .076-.02.097-.053.325-.504.513-1.082.546-1.68-.003-.981-.238-1.226-.327-1.284zm-3.437-3.112h3.38c.021 0 .042-.005.059-.017.09-.059.323-.306.323-1.287.003-.594-.161-1.176-.475-1.682-.021-.031-.057-.05-.095-.05h-1.707c-.879-.001-1.593.709-1.595 1.589v1.335c0 .063.049.112.11.112zm11.903 3.095h-3.386c-.024 0-.048.007-.067.022-.087.066-.307.326-.307 1.279.011.594.182 1.176.496 1.681.021.032.057.053.095.052h1.687c.879.001 1.592-.709 1.594-1.588v-1.335c0-.061-.05-.111-.112-.111zm-1.485-6.129h-6.744c-.062-.001-.112.048-.113.109 0 .018.004.035.012.051.254.484.387 1.023.382 1.572 0 .824-.165 1.193-.311 1.361-.032.035-.034.088-.006.127.141.199.316.601.316 1.373 0 .812-.15 1.196-.292 1.375-.029.038-.029.092 0 .129.144.176.292.549.292 1.334-.021.553-.177 1.09-.451 1.569-.029.054-.011.12.043.149.017.01.034.014.054.014h4.652c.061 0 .109-.049.109-.109 0-.02-.004-.037-.013-.054-.256-.483-.395-1.022-.402-1.569 0-.789.15-1.16.292-1.336.03-.039.03-.092 0-.129-.143-.181-.292-.563-.292-1.375 0-1.26.47-1.535.49-1.546 0 0 .007-.012.065-.012h3.4c.062 0 .111-.049.111-.111v-1.335c.001-.878-.713-1.589-1.594-1.587zm-2.938 1.105h-3.058c-.055 0-.099-.043-.1-.099 0-.054.044-.098.099-.097h.001 3.058c.054 0 .098.043.098.097s-.044.097-.098.099zm0 7.187h-3.058c-.055.001-.1-.042-.1-.096 0 0 0 0 0-.001 0-.055.044-.098.099-.098h.001 3.058c.054 0 .098.043.098.098 0 .054-.044.097-.098.097z" fill="url(#d)"/></g><g fill="#fff" transform="translate(293.367 193.648)"><path d="m-484.174-179.608c.191-.031.387-.047.582-.047.235-.019.472.053.66.196.135.126.211.306.205.49.008.187-.059.365-.184.502-.193.181-.453.272-.719.259-.081.004-.164-.005-.244-.021v.938h-.303zm.304 1.133c.082.02.167.027.251.025.365 0 .589-.183.589-.5 0-.312-.224-.464-.554-.464-.098-.003-.191.007-.286.023z"/><path d="m-482.26-179.76h.308v2.477h-.308z"/><path d="m-480.163-177.69c-.001.137.008.271.024.404h-.274l-.024-.213h-.011c-.121.161-.312.256-.517.251-.266.021-.495-.18-.516-.444 0-.014 0-.025 0-.039 0-.408.36-.631 1.014-.629v-.035c.024-.188-.108-.361-.299-.387-.027-.004-.058-.004-.084 0-.156-.002-.312.041-.442.125l-.07-.205c.171-.1.362-.148.56-.146.517 0 .643.354.643.688zm-.297-.455c-.337-.01-.716.051-.716.379-.014.146.097.277.244.293.015 0 .027.002.041 0 .187.006.354-.107.416-.281.01-.031.015-.064.015-.1z"/><path d="m-479.224-179.376v.403h.438v.232h-.438v.91c0 .211.061.328.229.328.062.003.119-.005.178-.021l.015.233c-.088.029-.181.044-.272.043-.123.007-.243-.041-.331-.13-.092-.128-.133-.285-.117-.441v-.922h-.264v-.232h.264v-.312z"/><path d="m-478.012-179.445c.004.103-.075.187-.178.188-.006 0-.013 0-.02 0-.1.002-.182-.076-.186-.176 0-.006 0-.01 0-.014-.002-.104.08-.189.184-.191h.01c.104-.002.188.078.188.181.002.004.002.008.002.012m-.339.472h.307v1.688h-.307z"/><path d="m-477.449-178.516c0-.178-.004-.316-.016-.457h.273l.018.279h.007c.114-.199.329-.32.56-.314.233 0 .596.143.596.72v1.005h-.308v-.973c0-.271-.103-.5-.391-.5-.245.01-.438.213-.433.457v1.016h-.309z"/><path d="m-474.013-177.748c0 .18.004.332.015.465h-.271l-.02-.274h-.008c-.114.196-.328.317-.557.313-.268 0-.584-.149-.584-.74v-.985h.307v.931c0 .321.104.541.377.541.18-.003.34-.113.404-.283.02-.049.027-.103.026-.156v-1.031h.308z"/><path d="m-473.417-178.516c0-.178-.009-.316-.015-.457h.269l.015.275h.012c.104-.195.312-.316.533-.312.215-.002.404.135.475.338h.007c.047-.086.112-.161.192-.221.104-.08.233-.123.369-.117.227 0 .557.146.557.731v.989h-.299v-.95c0-.33-.121-.521-.366-.521-.167.007-.312.115-.366.273-.016.051-.023.104-.023.153v1.043h-.301v-1.01c0-.269-.117-.459-.354-.459-.23.024-.405.224-.403.455v1.016h-.301v-1.226z"/></g></g></svg>