<svg enable-background="new 0 0 209.025 47.25" height="47.25" viewBox="0 0 209.025 47.25" width="209.025" xmlns="http://www.w3.org/2000/svg"><path d="m185.399 47.251h-51.562v-47.251h51.562c13.048 0 23.625 10.578 23.625 23.625 0 13.049-10.577 23.626-23.625 23.626z" fill="#20a5ff"/><path d="m23.625 45.834c-12.245 0-22.208-9.962-22.208-22.208s9.963-22.208 22.208-22.208h114.523c12.245 0 22.208 9.962 22.208 22.208s-9.963 22.208-22.208 22.208z" fill="#fff"/><path d="m138.148 2.835c11.464 0 20.791 9.327 20.791 20.791s-9.327 20.791-20.791 20.791h-114.522c-11.465 0-20.791-9.327-20.791-20.791s9.325-20.791 20.791-20.791zm0-2.835h-114.522c-13.05 0-23.626 10.578-23.626 23.625 0 13.048 10.576 23.625 23.626 23.625h114.522c13.048 0 23.625-10.578 23.625-23.625.001-13.047-10.577-23.625-23.625-23.625z" fill="#20a5ff"/><g enable-background="new" fill="#20a5ff"><path d="m24.329 18.57h3.326l3.243 8.001 3.211-8.001h3.309v11.558h-2.815v-6.932l-2.585 6.932h-2.272l-2.602-6.948v6.948h-2.815z"/><path d="m46.634 28.086h-4.314l-.691 2.042h-2.947l4.182-11.558h3.26l4.182 11.558h-2.98zm-2.157-6.404-1.416 4.231h2.848z"/><path d="m50.944 18.57h8.94v2.255h-3.062v9.303h-2.815v-9.303h-3.062v-2.255z"/><path d="m66.022 18.57c2.832 0 4.248 1.63 4.248 3.639 0 1.448-.79 2.815-2.568 3.342l2.667 4.577h-3.178l-2.404-4.363h-.675v4.363h-2.815v-11.558zm-.164 2.338h-1.746v2.864h1.746c1.054 0 1.547-.543 1.547-1.448 0-.856-.494-1.416-1.547-1.416z"/><path d="m72.029 18.57h2.815v11.558h-2.815z"/><path d="m82.218 18.438c2.75 0 4.824 1.548 5.483 4.05h-3.095c-.478-.987-1.35-1.481-2.42-1.481-1.729 0-2.914 1.284-2.914 3.326 0 2.041 1.186 3.325 2.914 3.325 1.07 0 1.943-.494 2.42-1.481h3.095c-.659 2.502-2.733 4.033-5.483 4.033-3.408 0-5.812-2.42-5.812-5.877 0-3.458 2.404-5.895 5.812-5.895z"/><path d="m89.376 18.57h2.815v6.915c0 1.366.675 2.156 2.009 2.156s2.042-.79 2.042-2.156v-6.915h2.815v6.898c0 3.194-2.239 4.774-4.906 4.774-2.684 0-4.775-1.58-4.775-4.774z"/><path d="m103.845 18.57v9.385h3.688v2.173h-6.503v-11.558z"/><path d="m115.961 20.825h-4.265v2.338h3.771v2.174h-3.771v2.535h4.265v2.256h-7.079v-11.558h7.079z"/><path d="m117.62 23.18h7.245v2.338h-7.245z"/><path d="m131.512 30.243c-2.485 0-4.428-1.234-4.511-3.572h2.997c.082.889.642 1.316 1.432 1.316.823 0 1.35-.411 1.35-1.086 0-2.141-5.778-.988-5.745-5.088 0-2.189 1.794-3.408 4.215-3.408 2.519 0 4.215 1.251 4.33 3.458h-3.046c-.049-.741-.576-1.186-1.334-1.202-.675-.017-1.186.329-1.186 1.054 0 2.009 5.713 1.103 5.713 4.972 0 1.943-1.513 3.556-4.215 3.556z"/><path d="m144.534 20.825h-4.266v2.338h3.771v2.174h-3.771v2.535h4.266v2.256h-7.08v-11.558h7.08z"/></g><path d="m169.197 22.489 6.481 3.534v5.737c0 .587.394 1.104.96 1.257l7.158 1.952c.226.062.461.062.688 0l7.16-1.952c.563-.152.959-.668.959-1.257v-5.737l1.953-1.062v1.596c0 .719.583 1.301 1.303 1.301.719 0 1.301-.582 1.301-1.301v-3.014l1.925-1.05c.635-.354.854-1.154.502-1.786-.115-.209-.291-.383-.502-.501l-14.318-7.812c-.392-.212-.857-.212-1.247 0l-14.321 7.812c-.631.355-.854 1.154-.5 1.786.118.21.29.382.5.5zm20.803 8.279-5.855 1.602-5.858-1.602v-3.319l5.236 2.854c.387.214.854.214 1.246 0l5.231-2.858zm-5.858-15.75 11.603 6.33-.862.469-10.523-1.757c-.709-.119-1.381.36-1.5 1.068-.119.709.356 1.381 1.068 1.5l7.245 1.208-7.029 3.841-11.604-6.33z" fill="#fff"/></svg>